<svg xmlns="http://www.w3.org/2000/svg" viewBox="0.5 0 215 212.5" fill="none" preserveAspectRatio="xMidYMid meet">
    <path d="M189.5 0L166 21.5V46.5H189.5L215.5 23L189.5 21.5V0Z" fill="#F9D12F"></path>
    <path fill-rule="evenodd" clip-rule="evenodd" d="M13.5 119.5C13.5 75.3172 49.3172 39.5 93.5 39.5C113.307 39.5 131.433 46.6985 145.405 58.622L154.523 49.3189C138.191 35.1058 116.851 26.5 93.5 26.5C42.1375 26.5 0.5 68.1375 0.5 119.5C0.5 170.862 42.1375 212.5 93.5 212.5C144.862 212.5 186.5 170.862 186.5 119.5C186.5 95.8483 177.671 74.2588 163.129 57.8475L154.003 67.1584C166.15 81.1878 173.5 99.4856 173.5 119.5C173.5 163.683 137.683 199.5 93.5 199.5C49.3172 199.5 13.5 163.683 13.5 119.5ZM134.33 69.9212C123.171 60.9016 108.966 55.5 93.5 55.5C57.6015 55.5 28.5 84.6015 28.5 120.5C28.5 156.398 57.6015 185.5 93.5 185.5C129.398 185.5 158.5 156.398 158.5 120.5C158.5 104.43 152.668 89.7223 143.006 78.3773L133.86 87.7087C141.137 96.6553 145.5 108.068 145.5 120.5C145.5 149.219 122.219 172.5 93.5 172.5C64.7812 172.5 41.5 149.219 41.5 120.5C41.5 91.7812 64.7812 68.5 93.5 68.5C105.422 68.5 116.406 72.5118 125.177 79.2589L134.33 69.9212ZM108.396 96.3797C104.103 93.6084 98.9895 92 93.5 92C78.3122 92 66 104.312 66 119.5C66 134.688 78.3122 147 93.5 147C108.688 147 121 134.688 121 119.5C121 114.189 119.494 109.229 116.887 105.025L103.893 118.282C101.551 120.671 97.7154 120.71 95.3261 118.368C92.9369 116.026 92.8985 112.191 95.2403 109.801L108.396 96.3797Z" fill="#F9D12F"></path>
</svg>