<svg xmlns="http://www.w3.org/2000/svg" viewBox="0 0.000003814697265625 282 343.5" fill="none" preserveAspectRatio="xMidYMid meet">
    <path fill-rule="evenodd" clip-rule="evenodd" d="M0 75.75C0 57.6627 14.6627 43 32.75 43H56C61.2467 43 65.5 47.2533 65.5 52.5V52.5C65.5 57.7467 61.2467 62 56 62H42.25C29.4094 62 19 72.4094 19 85.25V283.5C19 306.144 37.3563 324.5 60 324.5H222C244.644 324.5 263 306.144 263 283.5V84.75C263 72.1855 252.814 62 240.25 62H227C221.753 62 217.5 57.7467 217.5 52.5V52.5C217.5 47.2533 221.753 43 227 43H249.75C267.561 43 282 57.4388 282 75.25V302.5C282 325.144 263.644 343.5 241 343.5H41C18.3563 343.5 0 325.144 0 302.5V75.75Z" fill="#F9D12F"></path>
    <rect x="66" y="126" width="155" height="16" rx="8" fill="#F9D12F"></rect>
    <rect x="66" y="188" width="122" height="16" rx="8" fill="#F9D12F"></rect>
    <rect x="66" y="250" width="102" height="16" rx="8" fill="#F9D12F"></rect>
    <path fill-rule="evenodd" clip-rule="evenodd" d="M116.238 17.0774C126.461 -4.18132 156.094 -5.98467 168.829 13.8768L171.268 17.6794C172.988 20.362 175.959 21.9849 179.15 21.9849H181.439C197.213 21.9849 210 34.7482 210 50.4925C210 66.2367 197.213 79 181.439 79H100.561C84.7874 79 72 66.2367 72 50.4925C72 34.7482 84.7874 21.9849 100.561 21.9849H108.424C111.757 21.9849 114.795 20.0769 116.238 17.0774ZM150.727 25.4402C147.067 19.7322 138.551 20.2504 135.613 26.36C130.594 36.7969 120.023 43.4361 108.424 43.4361H100.561C96.657 43.4361 93.4918 46.5954 93.4918 50.4925C93.4918 54.3896 96.657 57.5488 100.561 57.5488H181.439C185.343 57.5488 188.508 54.3896 188.508 50.4925C188.508 46.5954 185.343 43.4361 181.439 43.4361H179.15C168.631 43.4361 158.836 38.0862 153.166 29.2427L150.727 25.4402Z" fill="#F9D12F"></path>
</svg>